<svg width="15" height="15" viewBox="0 0 15 15" fill="none" xmlns="http://www.w3.org/2000/svg">
  <path
    d="M10.6644 2.82881C10.9925 2.6648 11.3466 2.56851 11.7015 2.62764C12.0841 2.69147 12.3441 2.9149 12.4984 3.14619C12.6403 3.35896 12.6971 3.58047 12.722 3.71748C12.7244 3.73041 12.725 3.74328 12.7269 3.75557C12.7292 3.75969 12.7314 3.76401 12.7338 3.76826C12.7925 3.87385 12.8694 4.02262 12.9476 4.20674C13.1026 4.57148 13.2728 5.09391 13.3109 5.70283C13.3494 6.31825 13.253 7.0258 12.8705 7.73213C12.6517 8.13605 12.3458 8.52153 11.9437 8.8835L12.1771 8.99971L12.2396 9.37666V9.37861L12.2406 9.37959V9.3835C12.2411 9.38655 12.2419 9.39071 12.2425 9.39522C12.2439 9.40416 12.2454 9.41597 12.2474 9.43037C12.2515 9.45951 12.2568 9.50017 12.2621 9.54951C12.2726 9.64787 12.2839 9.7848 12.2884 9.94795C12.2974 10.2694 12.2814 10.7185 12.1654 11.1823C12.0497 11.6447 11.8222 12.1703 11.3754 12.5827C10.914 13.0084 10.287 13.2495 9.50036 13.2497C9.06593 13.2498 8.6801 13.0894 8.37926 12.9089C8.07454 12.726 7.80713 12.494 7.59411 12.281C7.56119 12.248 7.53044 12.2139 7.49938 12.1813C7.46847 12.2138 7.43838 12.2482 7.40563 12.281C7.19259 12.494 6.92521 12.726 6.62047 12.9089C6.31963 13.0894 5.93379 13.2497 5.49938 13.2497C4.71275 13.2496 4.08578 13.0085 3.62438 12.5827C3.17755 12.1703 2.94995 11.6447 2.83434 11.1823C2.71839 10.7185 2.70235 10.2694 2.71129 9.94795C2.71584 9.78482 2.72713 9.64787 2.73766 9.54951C2.74295 9.50017 2.74826 9.45951 2.75231 9.43037C2.75431 9.41597 2.75582 9.40417 2.75719 9.39522C2.75788 9.3907 2.75866 9.38656 2.75915 9.3835L2.76012 9.37959V9.37764C2.76012 9.37764 2.76057 9.37735 3.50036 9.50068L2.76012 9.37764L2.82262 8.99971L3.05504 8.8835C2.65324 8.5217 2.34793 8.13582 2.12926 7.73213C1.74687 7.02601 1.65046 6.31909 1.68883 5.70381C1.72689 5.09469 1.89708 4.57157 2.05211 4.20674C2.13027 4.02285 2.20625 3.87381 2.26501 3.76826C2.26761 3.76358 2.27125 3.75911 2.27379 3.75459C2.27571 3.74266 2.27542 3.73001 2.2777 3.71748C2.30262 3.58047 2.35851 3.35894 2.50036 3.14619C2.65468 2.91476 2.91545 2.69151 3.29821 2.62764C3.6089 2.57584 3.91884 2.6435 4.21129 2.77119L4.33532 2.82881L4.37731 2.85029L4.41637 2.87568C5.92307 3.88021 6.80982 4.51405 7.32458 4.9001C7.38843 4.94799 7.44624 4.99316 7.49938 5.03389C7.55268 4.99303 7.61107 4.94816 7.67516 4.9001C8.18993 4.51404 9.07667 3.8802 10.5834 2.87568L10.6224 2.85029L10.6644 2.82881ZM11.2523 4.23213C9.85903 5.16393 9.04188 5.74982 8.57458 6.10029C8.33243 6.28191 8.18649 6.39848 8.10485 6.46651C8.06589 6.49897 8.04164 6.51924 8.02965 6.52998L7.49938 7.06026L6.96911 6.53096C6.95696 6.52008 6.93328 6.49849 6.89489 6.46651C6.81325 6.39848 6.66731 6.28191 6.42516 6.10029C5.9577 5.74971 5.13956 5.16445 3.74547 4.23213L3.62438 4.41572C3.6229 4.41806 3.62053 4.42161 3.61754 4.42647C3.60894 4.44048 3.59393 4.46474 3.57555 4.49776C3.53865 4.56404 3.48648 4.66545 3.432 4.79365C3.3215 5.05374 3.21036 5.40595 3.1859 5.79658C3.16188 6.18113 3.22184 6.59963 3.4486 7.01826C3.67554 7.43709 4.09662 7.906 4.87243 8.34932L6.08825 9.04463L4.21032 9.98213V10.1804C4.21493 10.3803 4.23675 10.6034 4.2904 10.8181C4.36223 11.1054 4.47866 11.3302 4.64098 11.4802C4.78875 11.6166 5.03673 11.7496 5.49938 11.7497C5.56495 11.7497 5.68028 11.7233 5.84801 11.6228C6.0119 11.5244 6.18222 11.3813 6.34411 11.2194C6.50355 11.06 6.63941 10.8979 6.73571 10.7741C6.78338 10.7128 6.82096 10.6624 6.84508 10.6286C6.85696 10.612 6.8652 10.5992 6.87047 10.5915L6.87633 10.5837L7.50036 9.64815L8.12438 10.5837C8.12438 10.5837 8.12662 10.5877 8.12926 10.5915C8.13453 10.5992 8.14277 10.612 8.15465 10.6286C8.17878 10.6624 8.21635 10.7128 8.26403 10.7741C8.36033 10.8979 8.49617 11.06 8.65563 11.2194C8.81753 11.3813 8.98784 11.5244 9.15172 11.6228C9.31912 11.7231 9.43381 11.7496 9.49938 11.7497C9.96236 11.7497 10.2109 11.6167 10.3588 11.4802C10.5212 11.3302 10.6384 11.1055 10.7103 10.8181C10.7818 10.5321 10.7961 10.2309 10.7894 9.98994C10.7893 9.98741 10.7885 9.98465 10.7884 9.98213L8.91149 9.04463L10.1283 8.34932C10.904 7.90605 11.3242 7.43704 11.5511 7.01826C11.7779 6.59964 11.8379 6.18114 11.8138 5.79658C11.7894 5.40596 11.6783 5.05375 11.5677 4.79365C11.5133 4.66545 11.4611 4.56405 11.4242 4.49776C11.4058 4.46474 11.3908 4.44048 11.3822 4.42647C11.3792 4.42161 11.3768 4.41806 11.3754 4.41572L11.2523 4.23213Z"
    fill="currentColor" />
</svg>