<svg width="15" height="15" viewBox="0 0 15 15" fill="none" xmlns="http://www.w3.org/2000/svg">
  <path
    d="M8 12V13.5H7V12H8ZM10.75 6.25C10.75 4.45508 9.29492 3 7.5 3C5.70507 3.00001 4.25 4.45509 4.25 6.25C4.25 7.11939 4.59007 7.90579 5.14746 8.49023C5.35301 8.70574 5.56756 8.96014 5.76367 9.25H9.23633C9.43244 8.96014 9.64699 8.70574 9.85254 8.49023C10.4099 7.90579 10.75 7.11939 10.75 6.25ZM12.25 6.25C12.25 7.52051 11.7511 8.67434 10.9385 9.52637L10.748 9.73633C10.3197 10.2411 10 10.8407 10 11.5C10 12.6046 9.10457 13.5 8 13.5V12C8.27614 12 8.5 11.7761 8.5 11.5C8.5 11.2385 8.52949 10.9884 8.58008 10.75H6.41992C6.47051 10.9884 6.5 11.2385 6.5 11.5C6.5 11.7761 6.72386 12 7 12V13.5C5.89543 13.5 5 12.6046 5 11.5C5 10.8407 4.68031 10.2411 4.25195 9.73633L4.06152 9.52637C3.24885 8.67434 2.75 7.52051 2.75 6.25C2.75 3.62665 4.87665 1.50001 7.5 1.5C10.1233 1.5 12.25 3.62665 12.25 6.25Z"
    fill="currentColor" />
</svg>