<svg width="15" height="15" viewBox="0 0 15 15" fill="none" xmlns="http://www.w3.org/2000/svg">
  <path
    d="M13.3838 2.64453C13.3786 2.64777 13.3679 2.65488 13.3525 2.66504C13.3219 2.68538 13.2708 2.7194 13.2012 2.77051C13.0613 2.87316 12.8448 3.04257 12.5596 3.2959C11.9891 3.80253 11.1436 4.64668 10.0859 5.96875C9.05632 7.25577 8.21032 8.82124 7.61719 10.084C7.32244 10.7115 7.09306 11.2567 6.93848 11.6436C6.86147 11.8363 6.80355 11.9896 6.76465 12.0938C6.74526 12.1456 6.7302 12.1857 6.7207 12.2119C6.71596 12.225 6.71217 12.235 6.70996 12.2412C6.70887 12.2443 6.70801 12.248 6.70801 12.248L6.70703 12.249L6.33984 13.2939L1.50586 9.06445L2.49414 7.93555L5.69238 10.7334C5.84231 10.3723 6.0314 9.93249 6.25977 9.44629C6.87547 8.13549 7.77902 6.45005 8.91406 5.03125C10.0209 3.6477 10.9251 2.74174 11.5635 2.1748C11.8826 1.89137 12.1353 1.69234 12.3135 1.56152C12.4026 1.49612 12.4736 1.44775 12.5244 1.41406C12.5497 1.39732 12.5705 1.38468 12.5859 1.375C12.5935 1.37024 12.5994 1.36545 12.6045 1.3623C12.607 1.3608 12.6094 1.35954 12.6113 1.3584L12.6143 1.35645L12.6162 1.35547L13.3838 2.64453Z"
    fill="currentColor" />
</svg>