<svg width="15" height="15" viewBox="0 0 15 15" fill="none" xmlns="http://www.w3.org/2000/svg">
  <path
    d="M7.5 2.25C8.62257 2.25 10.0321 2.37932 11.1426 2.50488C11.7016 2.5681 12.1928 2.63129 12.5439 2.67871C12.7195 2.70242 12.8607 2.72241 12.958 2.73633C13.0065 2.74326 13.0445 2.74818 13.0703 2.75195C13.0832 2.75384 13.0938 2.75583 13.1006 2.75684C13.1038 2.75731 13.1084 2.75781 13.1084 2.75781H13.1104L13.75 2.85352V12.8701L12.8887 12.7422L12.8867 12.7412C12.8867 12.7412 12.8834 12.7406 12.8809 12.7402C12.8749 12.7394 12.8655 12.7381 12.8535 12.7363C12.8293 12.7328 12.793 12.7274 12.7461 12.7207C12.6522 12.7073 12.5151 12.6882 12.3438 12.665C12.0007 12.6187 11.5207 12.5569 10.9746 12.4951C9.87434 12.3707 8.53401 12.25 7.5 12.25C6.46599 12.25 5.12566 12.3707 4.02539 12.4951C3.47928 12.5569 2.9993 12.6187 2.65625 12.665C2.4849 12.6882 2.34776 12.7073 2.25391 12.7207C2.20702 12.7274 2.17068 12.7328 2.14648 12.7363C2.1345 12.7381 2.12511 12.7394 2.11914 12.7402C2.1166 12.7406 2.11328 12.7412 2.11328 12.7412H2.11133L1.25 12.8701V2.85352L1.88867 2.75781H1.8916C1.8916 2.75781 1.89624 2.75731 1.89941 2.75684C1.90619 2.75583 1.91678 2.75384 1.92969 2.75195C1.95549 2.74818 1.9935 2.74326 2.04199 2.73633C2.13935 2.72241 2.28051 2.70242 2.45605 2.67871C2.80722 2.63129 3.29835 2.5681 3.85742 2.50488C4.9679 2.37932 6.37743 2.25 7.5 2.25ZM9.37207 8.18555C8.80246 8.51699 8.16841 8.75 7.5 8.75C6.8313 8.75 6.19675 8.51722 5.62695 8.18555C4.85503 9.02487 4.06816 10.0865 3.43945 11.0557C3.57319 11.0396 3.71241 11.0212 3.85645 11.0049C4.96699 10.8793 6.37727 10.75 7.5 10.75C8.62273 10.75 10.033 10.8793 11.1436 11.0049C11.2872 11.0211 11.4261 11.0397 11.5596 11.0557C10.9308 10.0864 10.144 9.02482 9.37207 8.18555ZM2.75 9.40039C3.26393 8.67053 3.83426 7.93245 4.41113 7.29199C3.78526 6.75704 3.21654 6.16943 2.75 5.6416V9.40039ZM12.25 5.6416C11.7833 6.16959 11.214 6.75691 10.5879 7.29199C11.1649 7.93256 11.7359 8.67035 12.25 9.40039V5.6416ZM7.5 3.75C6.46598 3.75 5.12566 3.8707 4.02539 3.99512C3.79973 4.02064 3.58573 4.04881 3.3877 4.07324C3.45891 4.16009 3.53215 4.25243 3.61133 4.3457C4.2344 5.07969 5.07034 5.95891 5.96191 6.6123C6.5446 7.0393 7.06448 7.25 7.5 7.25C7.93552 7.25 8.4554 7.0393 9.03809 6.6123C9.92966 5.95891 10.7656 5.07969 11.3887 4.3457C11.4677 4.2526 11.5402 4.15995 11.6113 4.07324C11.4136 4.04884 11.1999 4.02059 10.9746 3.99512C9.87434 3.8707 8.53402 3.75 7.5 3.75Z"
    fill="currentColor" />
</svg>