<svg width="15" height="15" viewBox="0 0 15 15" fill="none" xmlns="http://www.w3.org/2000/svg">
  <path
    d="M4 4.25V5.75H3.25V11.668C3.7157 11.6217 4.34662 11.5626 5.0625 11.5029C6.32956 11.3973 7.87765 11.2909 9.25 11.2598V11H10.75V12.75H10C8.53247 12.75 6.68296 12.8725 5.1875 12.9971C4.44249 13.0592 3.78983 13.1214 3.32422 13.168C3.09166 13.1912 2.90581 13.2111 2.77832 13.2246C2.71456 13.2314 2.6649 13.2366 2.63184 13.2402C2.61555 13.242 2.60295 13.2432 2.59473 13.2441C2.59086 13.2446 2.58793 13.2449 2.58594 13.2451H2.58301L1.75 13.3379V4.25H4ZM13.25 2.5C13.25 4.03577 13.1221 5.68859 12.9961 6.94922C12.9329 7.58131 12.8698 8.1191 12.8223 8.49902C12.7985 8.6888 12.7786 8.83966 12.7646 8.94336C12.7577 8.99522 12.7518 9.03611 12.748 9.06348L12.7432 9.10254L12.7422 9.10547C12.7381 9.10494 12.6849 9.09783 12 9C11.3069 8.901 11.2609 8.89398 11.2578 8.89355C11.258 8.8921 11.2583 8.88788 11.2588 8.88477C11.2597 8.87853 11.261 8.86882 11.2627 8.85645C11.2662 8.83115 11.2717 8.79342 11.2783 8.74414C11.2917 8.64477 11.3109 8.49833 11.334 8.31348C11.3802 7.94349 11.4421 7.41839 11.5039 6.80078C11.576 6.07938 11.6432 5.23616 11.6904 4.36914C10.7751 5.28448 9.77532 6.28522 8.90137 7.15918L6.53027 9.53027L5.46973 8.46973L7.84082 6.09863C8.71478 5.22468 9.71454 4.22394 10.6299 3.30859C9.76318 3.35584 8.92036 3.42398 8.19922 3.49609C7.5816 3.55786 7.0565 3.61977 6.68652 3.66602C6.50167 3.68912 6.35523 3.7083 6.25586 3.72168C6.20658 3.72831 6.16885 3.73379 6.14355 3.7373C6.13117 3.73902 6.12147 3.74033 6.11523 3.74121C6.11244 3.7416 6.10986 3.74198 6.1084 3.74219H6.10645C6.10602 3.73912 6.09901 3.69307 6 3L5.89453 2.25781L5.89746 2.25684L5.93652 2.25195C5.96389 2.24815 6.00478 2.24233 6.05664 2.23535C6.16034 2.22139 6.31121 2.20146 6.50098 2.17773C6.8809 2.13025 7.4187 2.06711 8.05078 2.00391C9.31141 1.87785 10.9642 1.75 12.5 1.75H13.25V2.5Z"
    fill="currentColor" />
</svg>