<svg width="15" height="15" viewBox="0 0 15 15" fill="none" xmlns="http://www.w3.org/2000/svg">
  <path
    d="M12.25 7.5C12.25 4.87665 10.1234 2.75 7.5 2.75C4.87665 2.75 2.75 4.87665 2.75 7.5C2.75 9.29011 3.74199 10.8474 5.20703 11.6572C5.23118 11.626 5.25757 11.5919 5.2832 11.5527C5.455 11.2904 5.66857 10.8082 5.73047 9.98047C4.86332 9.48569 4.30762 8.51378 4.30762 7.5V4.59863L5.45117 5.36133C5.68877 5.21021 5.94378 5.09525 6.17285 5.01172C6.61184 4.85165 7.10297 4.75 7.5 4.75C7.89703 4.75 8.38816 4.85165 8.82715 5.01172C9.05599 5.09517 9.31045 5.21043 9.54785 5.36133L10.6924 4.59863V7.5C10.6924 8.51407 10.1361 9.48582 9.26855 9.98047C9.33045 10.8082 9.545 11.2904 9.7168 11.5527C9.7423 11.5917 9.76795 11.6261 9.79199 11.6572C11.2574 10.8475 12.25 9.29042 12.25 7.5ZM13.75 7.5C13.75 10.0731 12.1948 12.2818 9.97656 13.2402L9.66699 13.373L9.3623 13.2305L9.67969 12.5508L9.36035 13.2305L9.35938 13.2295L9.31055 13.2051C9.28909 13.1935 9.2637 13.1783 9.23438 13.1602C9.17553 13.1237 9.10201 13.0735 9.01953 13.0059C8.85383 12.8699 8.65359 12.6668 8.46191 12.374C8.07489 11.7829 7.75 10.8718 7.75 9.5V8.93457L8.29297 8.7793C8.78093 8.63935 9.19238 8.10652 9.19238 7.5V7.1084L8.91602 6.76562C8.85058 6.68442 8.65041 6.54378 8.31348 6.4209C7.99378 6.30432 7.6792 6.25 7.5 6.25C7.3208 6.25 7.00622 6.30432 6.68652 6.4209C6.34959 6.54378 6.14942 6.68442 6.08398 6.76562L5.80762 7.1084V7.5C5.80762 8.10652 6.21907 8.63935 6.70703 8.7793L7.25 8.93457V9.5C7.25 10.8718 6.92511 11.7829 6.53809 12.374C6.34641 12.6668 6.14617 12.8699 5.98047 13.0059C5.89799 13.0735 5.82447 13.1237 5.76562 13.1602C5.7363 13.1783 5.71091 13.1935 5.68945 13.2051L5.64062 13.2295L5.63965 13.2305C5.63965 13.2305 5.63788 13.2302 5.32031 12.5508L5.6377 13.2305L5.33301 13.373L5.02344 13.2402C2.80515 12.2818 1.25 10.0731 1.25 7.5C1.25 4.04822 4.04822 1.25 7.5 1.25C10.9518 1.25 13.75 4.04822 13.75 7.5Z"
    fill="currentColor" />
</svg>