<svg width="15" height="15" viewBox="0 0 15 15" fill="none" xmlns="http://www.w3.org/2000/svg">
  <path
    d="M7.83496 1.00879C11.2691 1.18312 14 4.0225 14 7.5L13.9912 7.83496C13.8169 11.2691 10.9775 14 7.5 14V12.5C7.70737 12.5 7.91156 12.4855 8.1123 12.4609C8.20957 12.2172 8.34215 11.8552 8.47461 11.3916C8.69936 10.6049 8.92297 9.53051 8.98926 8.25H6.01074C6.07703 9.53051 6.30064 10.6049 6.52539 11.3916C6.65779 11.855 6.78946 12.2172 6.88672 12.4609C7.08777 12.4855 7.2923 12.5 7.5 12.5V14L7.16504 13.9912C3.84181 13.8225 1.17749 11.1582 1.00879 7.83496L1 7.5C1 3.91015 3.91015 1 7.5 1L7.83496 1.00879ZM2.55566 8.25C2.79248 9.82442 3.76402 11.1577 5.10938 11.8916C5.1009 11.8626 5.09148 11.8334 5.08301 11.8037C4.82812 10.9116 4.57565 9.69651 4.50781 8.25H2.55566ZM10.4912 8.25C10.4234 9.69649 10.1719 10.9116 9.91699 11.8037C9.90849 11.8335 9.89815 11.8626 9.88965 11.8916C11.2354 11.1578 12.2075 9.82472 12.4443 8.25H10.4912ZM9.91699 3.19629C10.1719 4.08843 10.4234 5.30351 10.4912 6.75H12.4443C12.2074 5.17512 11.2356 3.8412 9.88965 3.10742C9.89824 3.13676 9.9084 3.16622 9.91699 3.19629ZM7.5 2.5C7.29234 2.5 7.08774 2.5135 6.88672 2.53809C6.78943 2.7818 6.65794 3.14447 6.52539 3.6084C6.30064 4.39508 6.07703 5.46949 6.01074 6.75H8.98926C8.92297 5.46949 8.69936 4.39508 8.47461 3.6084C8.342 3.14425 8.20961 2.7818 8.1123 2.53809C7.9116 2.51357 7.70733 2.5 7.5 2.5ZM5.10938 3.10742C3.76381 3.84129 2.79251 5.17542 2.55566 6.75H4.50781C4.57565 5.30349 4.82812 4.08844 5.08301 3.19629C5.09157 3.16631 5.10081 3.13668 5.10938 3.10742Z"
    fill="currentColor" />
</svg>