<svg width="15" height="15" viewBox="0 0 15 15" fill="none" xmlns="http://www.w3.org/2000/svg">
<path d="M7.5 5.49665C7.22386 5.49665 6.99907 5.27279 7 4.99665C7.00092 4.72143 7.22478 4.5 7.5 4.5C7.77522 4.5 7.99907 4.72143 8 4.99665C8.00093 5.27279 7.77614 5.49665 7.5 5.49665Z" fill="black"/>
<path d="M7.5 7L7.5 11.5M13.25 7.5C13.25 10.6756 10.6756 13.25 7.5 13.25C4.32436 13.25 1.75 10.6756 1.75 7.5C1.75 4.32436 4.32436 1.75 7.5 1.75C10.6756 1.75 13.25 4.32436 13.25 7.5ZM7.5 5.49665C7.22386 5.49665 6.99907 5.27279 7 4.99665C7.00092 4.72143 7.22478 4.5 7.5 4.5C7.77522 4.5 7.99907 4.72143 8 4.99665C8.00093 5.27279 7.77614 5.49665 7.5 5.49665Z" stroke="black" stroke-width="1.5" stroke-miterlimit="16"/>
</svg>
