<svg width="15" height="15" viewBox="0 0 15 15" fill="none" xmlns="http://www.w3.org/2000/svg">
  <path d="M8.25 11.5H6.75V7H8.25V11.5Z" fill="currentColor" />
  <path
    d="M7.62695 3.75684C8.21154 3.81588 8.68138 4.27761 8.74316 4.86621L8.75 4.99414L8.74414 5.12305C8.68139 5.75652 8.14493 6.24707 7.5 6.24707C6.81195 6.24707 6.24767 5.68876 6.25 4.99414L6.25684 4.86621C6.32304 4.23554 6.85764 3.75 7.5 3.75L7.62695 3.75684Z"
    fill="currentColor" />
  <path fill-rule="evenodd" clip-rule="evenodd"
    d="M7.5 1C11.0899 1 14 3.91015 14 7.5C14 11.0899 11.0899 14 7.5 14C3.91015 14 1 11.0899 1 7.5C1 3.91015 3.91015 1 7.5 1ZM7.5 2.5C4.73858 2.5 2.5 4.73858 2.5 7.5C2.5 10.2614 4.73858 12.5 7.5 12.5C10.2614 12.5 12.5 10.2614 12.5 7.5C12.5 4.73858 10.2614 2.5 7.5 2.5Z"
    fill="currentColor" />
</svg>