<svg width="15" height="15" viewBox="0 0 15 15" fill="none" xmlns="http://www.w3.org/2000/svg">
  <path
    d="M10.25 5.77832C9.42778 6.30343 8.21788 6.75 6.5 6.75C4.78212 6.75 3.57222 6.30343 2.75 5.77832V10.3965C2.77288 10.4373 2.80102 10.489 2.83887 10.5469C2.9569 10.7273 3.1481 10.976 3.43262 11.2266C3.99018 11.7174 4.94156 12.25 6.5 12.25C8.05086 12.25 8.99879 11.7032 9.55762 11.1953C9.8431 10.9358 10.0361 10.6775 10.1553 10.4893C10.1963 10.4245 10.2262 10.3675 10.25 10.3232V5.77832ZM6.96973 8.21973C7.26262 7.92683 7.73738 7.92683 8.03027 8.21973C8.32317 8.51262 8.32317 8.98738 8.03027 9.28027L6.5 10.8105L4.96973 9.28027L4.91797 9.22363C4.67766 8.92905 4.69512 8.49433 4.96973 8.21973C5.24433 7.94512 5.67905 7.92766 5.97363 8.16797L6.03027 8.21973L6.5 8.68945L6.96973 8.21973ZM11 10.5C11.6817 10.7727 11.6963 10.7793 11.6963 10.7793L11.6953 10.7803V10.7822L11.6934 10.7871C11.692 10.7905 11.6894 10.7942 11.6875 10.7988C11.6836 10.8081 11.6791 10.8201 11.6729 10.834C11.6605 10.8617 11.6432 10.8982 11.6211 10.9424C11.5768 11.0311 11.5118 11.1515 11.4229 11.292C11.2452 11.5724 10.9692 11.9393 10.5674 12.3047C9.75117 13.0467 8.44882 13.75 6.5 13.75C4.55866 13.75 3.25984 13.0721 2.44238 12.3525C2.03968 11.998 1.76182 11.6416 1.58301 11.3682C1.49355 11.2314 1.4286 11.1141 1.38379 11.0273C1.36136 10.9839 1.34367 10.9473 1.33105 10.9199C1.32483 10.9064 1.31941 10.8949 1.31543 10.8857C1.3135 10.8813 1.31196 10.8774 1.31055 10.874L1.30859 10.8691L1.30762 10.8672C1.31178 10.865 1.36403 10.8418 2 10.5791L1.30664 10.8652L1.25 10.7275V3.82324L1.3291 3.66504L2 4C1.3904 3.6952 1.33494 3.66703 1.33008 3.66406L1.33105 3.66016L1.33398 3.65527C1.33569 3.65195 1.33763 3.64775 1.33984 3.64355C1.34444 3.63485 1.35058 3.62456 1.35742 3.6123C1.37138 3.58731 1.39017 3.55483 1.41406 3.5166C1.46182 3.4402 1.53035 3.33878 1.62305 3.22168C1.80857 2.98737 2.09106 2.68816 2.49609 2.39355C3.31575 1.79744 4.59647 1.25 6.5 1.25C8.40353 1.25 9.68425 1.79744 10.5039 2.39355C10.9089 2.68816 11.1914 2.98737 11.377 3.22168C11.3909 3.23924 11.4032 3.25761 11.416 3.27441C11.9432 3.3323 12.5445 3.50708 13.0664 3.90137C13.7658 4.42982 14.2323 5.28234 14.25 6.48926C14.2794 8.5062 12.9904 9.7595 11.75 10.1309V10.6445L11.6963 10.7793L11 10.5ZM11.75 8.49902C12.2643 8.17781 12.765 7.53682 12.75 6.51074C12.7384 5.71805 12.4552 5.3202 12.1621 5.09863C12.0383 5.00506 11.8978 4.93212 11.75 4.87793V8.49902ZM6.5 2.75C4.90376 2.75 3.93429 3.2026 3.37891 3.60645C3.188 3.74529 3.0412 3.88253 2.93164 4C3.0412 4.11747 3.188 4.25471 3.37891 4.39355C3.93429 4.7974 4.90376 5.25 6.5 5.25C8.09624 5.25 9.06571 4.7974 9.62109 4.39355C9.81174 4.2549 9.95787 4.11736 10.0674 4C9.95787 3.88264 9.81174 3.7451 9.62109 3.60645C9.06571 3.2026 8.09624 2.75 6.5 2.75Z"
    fill="currentColor" />
</svg>