<svg width="15" height="15" viewBox="0 0 15 15" fill="none" xmlns="http://www.w3.org/2000/svg">
  <path
    d="M12.7365 10.7122L12.7325 10.7131C12.7305 10.7138 12.7275 10.7152 12.7247 10.7161C12.7193 10.7178 12.7124 10.7194 12.7042 10.7219C12.6872 10.7272 12.6639 10.7341 12.6349 10.7424C12.5767 10.7591 12.4938 10.782 12.3859 10.8079C12.17 10.8597 11.8529 10.9259 11.4269 10.9915C10.6809 11.1062 9.6011 11.2182 8.14661 11.2444L7.50012 11.2502C7.49253 11.2502 7.48434 11.2493 7.47571 11.2493L4.25012 13.4026V11.0793C2.95333 10.9299 2.32895 10.7334 2.26477 10.7122L1.75012 10.5422V1.75024H13.2501V10.5413L12.7365 10.7122ZM3.25012 9.4104C3.62995 9.4867 4.22623 9.58414 5.06262 9.65454L5.75012 9.71216V10.5979L6.83704 9.87329L7.02844 9.74536L7.25793 9.74731C7.37362 9.74811 7.40753 9.75024 7.50012 9.75024L8.11926 9.74438C9.51015 9.71933 10.5224 9.61301 11.1984 9.50903C11.417 9.4754 11.6004 9.44062 11.7501 9.4104V3.25024H3.25012V9.4104Z"
    fill="currentColor" />
  <path
    d="M8.49999 6.74993V8.24993H4.49999V6.74993H8.49999ZM10.5 4.74993V6.24993H4.49999V4.74993H10.5Z"
    fill="currentColor" />
</svg>