<svg width="15" height="15" viewBox="0 0 15 15" fill="none" xmlns="http://www.w3.org/2000/svg">
  <path
    d="M12.75 1.25V10.8076L10.5342 13.0566L10.3232 13.2715L10.0215 13.2793C8.16693 13.3328 6.43073 13.4495 5.15723 13.5527C4.52092 13.6043 4.00085 13.6532 3.64062 13.6885C3.46058 13.7061 3.32034 13.7205 3.22559 13.7305C3.17829 13.7354 3.14217 13.7386 3.11816 13.7412C3.10616 13.7425 3.09672 13.7435 3.09082 13.7441C3.08824 13.7444 3.08496 13.7451 3.08496 13.7451H3.08301L2.25 13.8379V1.25H12.75ZM3.75 12.1719C4.09164 12.1395 4.52761 12.0989 5.03613 12.0576C6.15919 11.9665 7.64034 11.8674 9.25 11.8066V9.75H11.25V2.75H3.75V12.1719ZM7.5 9.75V11.25H4.5V9.75H7.5ZM10.5 7.25V8.75H4.5V7.25H10.5ZM4.25 5C4.25 4.17157 4.92157 3.5 5.75 3.5C6.57843 3.5 7.25 4.17157 7.25 5C7.25 5.82843 6.57843 6.5 5.75 6.5C4.92157 6.5 4.25 5.82843 4.25 5Z"
    fill="currentColor" />
</svg>