<svg width="15" height="15" viewBox="0 0 15 15" fill="none" xmlns="http://www.w3.org/2000/svg">
  <path
    d="M3.25 8V11.6309C3.51611 11.5931 3.82994 11.5484 4.17188 11.5059C5.18215 11.3802 6.47017 11.25 7.5 11.25C8.52983 11.25 9.81785 11.3802 10.8281 11.5059C11.1701 11.5484 11.4839 11.5931 11.75 11.6309V8H13.25V13.3838L12.3779 13.2402C12.3767 13.24 12.3735 13.2397 12.3711 13.2393C12.3657 13.2384 12.3566 13.2361 12.3457 13.2344C12.3238 13.2309 12.2912 13.2264 12.249 13.2197C12.1641 13.2064 12.04 13.1871 11.8848 13.1641C11.5738 13.1179 11.1386 13.0557 10.6436 12.9941C9.64447 12.8698 8.43241 12.75 7.5 12.75C6.56759 12.75 5.35553 12.8698 4.35645 12.9941C3.86136 13.0557 3.42618 13.1179 3.11523 13.1641C2.95999 13.1871 2.83591 13.2064 2.75098 13.2197C2.70878 13.2264 2.67615 13.2309 2.6543 13.2344C2.64337 13.2361 2.6343 13.2384 2.62891 13.2393C2.62647 13.2397 2.62423 13.24 2.62305 13.2402L1.75 13.3838V8H3.25ZM8.03613 1.97559C8.04033 1.97976 8.04719 1.98577 8.05566 1.99414C8.07303 2.01128 8.09882 2.03725 8.13281 2.07031C8.20136 2.13698 8.30236 2.23379 8.42773 2.35156C8.67895 2.58756 9.02814 2.90707 9.42188 3.24023C9.81688 3.57447 10.2492 3.91599 10.666 4.20117C11.0926 4.49303 11.4618 4.69624 11.7373 4.78809L11.2627 6.21191C10.7883 6.05377 10.2823 5.75692 9.81836 5.43945C9.34462 5.1153 8.87055 4.73797 8.45312 4.38477C8.3833 4.32569 8.31681 4.26483 8.25 4.20703V9H6.75V4.20703C6.68319 4.26483 6.6167 4.32569 6.54688 4.38477C6.12945 4.73797 5.65538 5.1153 5.18164 5.43945C4.71765 5.75692 4.21173 6.05377 3.7373 6.21191L3.2627 4.78809C3.53824 4.69624 3.9074 4.49303 4.33398 4.20117C4.75079 3.91599 5.18312 3.57447 5.57812 3.24023C5.97186 2.90707 6.32105 2.58756 6.57227 2.35156C6.69764 2.23379 6.79864 2.13698 6.86719 2.07031C6.90118 2.03725 6.92697 2.01128 6.94434 1.99414C6.95281 1.98577 6.95967 1.97976 6.96387 1.97559L7.5 1.43945L8.03613 1.97559Z"
    fill="currentColor" />
</svg>