<svg width="15" height="15" viewBox="0 0 15 15" fill="none" xmlns="http://www.w3.org/2000/svg">
  <path
    d="M3.04004 2.97949C3.05084 2.98977 3.06956 3.00656 3.09473 3.0293C3.14512 3.07481 3.22364 3.14297 3.32813 3.22656C3.53766 3.39419 3.84908 3.6212 4.24707 3.84863C4.90177 4.22275 5.77292 4.58791 6.79883 4.70801C7.05395 3.30987 8.2782 2.25 9.75 2.25C10.4968 2.25 11.1778 2.52495 11.7012 2.97461L14.3418 2.49316L12.7158 5.74316C12.1697 8.7113 10.7044 10.8998 8.667 11.9932C6.59297 13.1061 4.06978 13.0075 1.63575 11.6553L2.23731 10.2881C2.30744 10.3072 2.78136 10.4175 3.40821 10.1797C3.21827 10.0272 3.04734 9.8512 2.89649 9.66113C2.41669 9.0564 2.10095 8.27441 1.89942 7.50195C1.69567 6.72091 1.59496 5.89696 1.57813 5.16602C1.56171 4.4518 1.62314 3.75754 1.78809 3.2627L2.17188 2.11133L3.04004 2.97949ZM9.75 3.75C8.92158 3.75 8.25 4.42157 8.25 5.25C8.25 5.30775 8.25225 5.35894 8.25684 5.4043L8.28028 5.63184L8.17188 5.83398L8.16993 5.83496L8.16895 5.83887L7.96387 6.25H7.5C5.83223 6.25 4.45373 5.69466 3.50293 5.15137C3.35083 5.06445 3.21014 4.9755 3.07911 4.89062C3.07856 4.96811 3.07623 5.04823 3.07813 5.13086C3.09257 5.75916 3.1794 6.46676 3.35059 7.12305C3.52401 7.78784 3.77105 8.34996 4.07227 8.72949C4.3615 9.09373 4.6627 9.25 5 9.25H6.81055L5.53028 10.5303C5.26205 10.7985 4.99159 11.0125 4.72657 11.1846C5.91104 11.3697 7.01341 11.1778 7.95801 10.6709C9.51939 9.83289 10.7899 8.06314 11.2607 5.37109L11.2803 5.2627L11.3291 5.16504L11.6572 4.50684L11.5879 4.52051L11.166 4.59668L10.8848 4.27246C10.6077 3.95123 10.2027 3.75 9.75 3.75Z"
    fill="currentColor" />
</svg>