<svg xmlns="http://www.w3.org/2000/svg" xmlns:xlink="http://www.w3.org/1999/xlink" width="458.297" height="184.34" viewBox="0 0 458.297 184.34"><defs><linearGradient id="a" x1="0.5" x2="0.5" y2="1" gradientUnits="objectBoundingBox"><stop offset="0" stop-color="#654fff"/><stop offset="1" stop-color="#e8e3ff"/></linearGradient></defs><g transform="translate(11258.745 -14751.077)"><path d="M218.926,183.672a71.332,71.332,0,0,1-9.9-2.015,66.322,66.322,0,0,1-18.084-8.128,73.8,73.8,0,0,1-15.129-12.912,79.393,79.393,0,0,1-6.3-8.036,88.915,88.915,0,0,1-9.9-19.125,96.924,96.924,0,0,1-3.312-10.828,109.69,109.69,0,0,1-2.158-11.617c-.525-3.992-.86-8.168-1-12.416-.081-2.478-.093-4.94-.038-7.362-.086-3.807-.01-7.564.228-11.189a111.208,111.208,0,0,1,1.431-11.99,99.088,99.088,0,0,1,2.7-11.4A91.982,91.982,0,0,1,166.6,35.984a82.2,82.2,0,0,1,6.163-8.9,76.5,76.5,0,0,1,7.193-7.844,75.236,75.236,0,0,1,8.206-6.742,66,66,0,0,1,19.084-9.373A71.01,71.01,0,0,1,217.877.778a82.31,82.31,0,0,1,22.575,0,71.982,71.982,0,0,1,10.674,2.345,67.966,67.966,0,0,1,10,3.91,68.676,68.676,0,0,1,9.262,5.449,75.294,75.294,0,0,1,15.6,14.588,81,81,0,0,1,6.215,8.908,90.194,90.194,0,0,1,5.152,9.914,91.859,91.859,0,0,1,3.989,10.768,99.52,99.52,0,0,1,2.695,11.4,111.715,111.715,0,0,1,1.426,11.99c.235,3.6.31,7.34.224,11.137.056,2.435.043,4.914-.039,7.413-.141,4.251-.48,8.428-1.006,12.416a109.506,109.506,0,0,1-2.164,11.617,96.652,96.652,0,0,1-3.316,10.827,88.832,88.832,0,0,1-9.9,19.125,79.417,79.417,0,0,1-6.3,8.036A73.837,73.837,0,0,1,267.82,173.53a66.389,66.389,0,0,1-18.084,8.127,71.346,71.346,0,0,1-9.905,2.015,82.137,82.137,0,0,1-20.905,0Zm-23.855-83.639c.234,2.425.566,4.8.986,7.068.417,2.238.932,4.43,1.535,6.511a60,60,0,0,0,2.069,5.977,53.3,53.3,0,0,0,2.541,5.371,44.069,44.069,0,0,0,2.933,4.67,38.122,38.122,0,0,0,3.32,4,35.072,35.072,0,0,0,3.712,3.373,30.013,30.013,0,0,0,3.973,2.642,26.813,26.813,0,0,0,4.156,1.856,26.477,26.477,0,0,0,4.395,1.111,29.729,29.729,0,0,0,9.39,0,26.641,26.641,0,0,0,4.394-1.11,26.928,26.928,0,0,0,4.159-1.858,29.949,29.949,0,0,0,3.974-2.643,35.872,35.872,0,0,0,3.727-3.379,39.313,39.313,0,0,0,3.35-4.011,45.4,45.4,0,0,0,2.976-4.679,54.781,54.781,0,0,0,2.6-5.38,58.792,58.792,0,0,0,2.12-5.969c.617-2.083,1.147-4.271,1.573-6.505.432-2.262.772-4.637,1.012-7.06.205-2.071.341-4.232.407-6.438q-.045-1.462-.133-2.887c-.155-2.471-.414-4.909-.77-7.243s-.819-4.61-1.375-6.785a62.465,62.465,0,0,0-1.977-6.327A57.354,57.354,0,0,0,257.6,64.57a47.324,47.324,0,0,0-2.956-5.065,40.235,40.235,0,0,0-3.389-4.368,36.227,36.227,0,0,0-3.823-3.694,29.974,29.974,0,0,0-4.129-2.9,26.911,26.911,0,0,0-9.09-3.283,30.425,30.425,0,0,0-5.061-.414,29.014,29.014,0,0,0-4.929.412,26.12,26.12,0,0,0-8.884,3.269,29.689,29.689,0,0,0-4.063,2.9,35.817,35.817,0,0,0-3.763,3.69,40.021,40.021,0,0,0-3.328,4.363,47.046,47.046,0,0,0-2.9,5.064,57.316,57.316,0,0,0-2.455,5.77,63.571,63.571,0,0,0-1.93,6.335c-.544,2.179-1,4.464-1.343,6.794s-.6,4.77-.753,7.252q-.087,1.438-.131,2.918C194.738,95.806,194.871,97.962,195.071,100.033Zm188.084,81.69v-6l1.838-24.558H305.9v-6l1.14-30.2L393.673,3.046h43.995V9.064l-.027.288-9.059,101.205H458.3v6l-3.577,34.607H424.946l-2.736,30.559Zm4.877-71.166,3.057-40.846-32.117,40.846ZM84.659,181.724l-2.026-30.559H3.074L0,121.452l0-.024v-6l.742-1.171L71.125,3.046h43.66l5.552,107.511h30.246l1.306,34.607v6H122.434l1.268,24.558v6ZM79.94,110.558,77.159,68.616,50.1,110.558Z" transform="translate(-11258.745 14751.077)"/><path d="M226.945,169.706a67,67,0,0,1-9.346-1.9,62.318,62.318,0,0,1-17-7.64,69.782,69.782,0,0,1-14.313-12.216,75.02,75.02,0,0,1-5.977-7.63,84.9,84.9,0,0,1-9.447-18.26,92.509,92.509,0,0,1-3.174-10.379,105.041,105.041,0,0,1-2.078-11.191q-.764-5.812-.967-12.025-.2-6.237.184-12.158a106.963,106.963,0,0,1,1.379-11.558,94.817,94.817,0,0,1,2.59-10.937,88.04,88.04,0,0,1,8.729-19.769,77.805,77.805,0,0,1,5.862-8.466,72.339,72.339,0,0,1,6.816-7.434,71.039,71.039,0,0,1,7.77-6.383,62.012,62.012,0,0,1,17.934-8.808A66.638,66.638,0,0,1,225.939.738a78.291,78.291,0,0,1,21.449,0,67.565,67.565,0,0,1,10.078,2.213,63.582,63.582,0,0,1,9.406,3.678,64.324,64.324,0,0,1,8.72,5.13,71.29,71.29,0,0,1,14.773,13.817,76.632,76.632,0,0,1,5.906,8.466,85.644,85.644,0,0,1,4.923,9.473,87.327,87.327,0,0,1,3.813,10.3,95,95,0,0,1,2.586,10.937,107.2,107.2,0,0,1,1.373,11.558q.386,5.92.179,12.158-.207,6.214-.974,12.025a105.045,105.045,0,0,1-2.084,11.191,92.329,92.329,0,0,1-3.179,10.379,84.869,84.869,0,0,1-9.455,18.26,75.037,75.037,0,0,1-5.98,7.63,69.847,69.847,0,0,1-14.319,12.216,62.349,62.349,0,0,1-17,7.64,67.022,67.022,0,0,1-9.347,1.9,78.155,78.155,0,0,1-19.863,0Zm4.1-138.389a30.114,30.114,0,0,0-10.234,3.766,33.5,33.5,0,0,0-4.612,3.284,39.672,39.672,0,0,0-4.183,4.1,43.73,43.73,0,0,0-3.664,4.8,50.717,50.717,0,0,0-3.147,5.5,60.99,60.99,0,0,0-2.629,6.177,67.118,67.118,0,0,0-2.053,6.736q-.867,3.474-1.418,7.171t-.789,7.6q-.238,3.9-.167,8.016t.442,7.951q.37,3.837,1.036,7.416t1.624,6.891a63.613,63.613,0,0,0,2.208,6.376,57.094,57.094,0,0,0,2.733,5.777,47.91,47.91,0,0,0,3.2,5.095,41.956,41.956,0,0,0,3.669,4.424,38.947,38.947,0,0,0,4.137,3.758,33.807,33.807,0,0,0,4.506,3,30.369,30.369,0,0,0,9.839,3.414,33.724,33.724,0,0,0,10.683,0,30.364,30.364,0,0,0,9.84-3.414,33.833,33.833,0,0,0,4.509-3,39.662,39.662,0,0,0,4.146-3.758,42.941,42.941,0,0,0,3.694-4.424,49.025,49.025,0,0,0,3.242-5.095,58.253,58.253,0,0,0,2.79-5.777,62.451,62.451,0,0,0,2.265-6.376q.984-3.32,1.667-6.891t1.063-7.416q.381-3.846.454-7.951t-.169-8.016q-.244-3.91-.809-7.6t-1.454-7.171a66.1,66.1,0,0,0-2.105-6.736,60.928,60.928,0,0,0-2.689-6.177,51.021,51.021,0,0,0-3.208-5.5,44.067,44.067,0,0,0-3.727-4.8,40.138,40.138,0,0,0-4.244-4.1,33.855,33.855,0,0,0-4.683-3.284,30.934,30.934,0,0,0-10.425-3.766,34.253,34.253,0,0,0-5.731-.471A32.87,32.87,0,0,0,231.041,31.317ZM394.963,167.723l2.287-30.559H317.556l.935-24.766L403.133,3.046h37.659l-9.624,107.511h30.193l-2.75,26.607H428.786l-2.735,30.559Zm4.278-57.165,4.81-64.266-50.533,64.266ZM95.9,167.723l-2.026-30.559H14.18L11.62,112.4,80.825,3.046h37.659l5.552,107.511h30.193l1,26.607H125.41l1.578,30.559Zm-3.79-57.165L87.849,46.291,46.386,110.558Z" transform="translate(-11266.243 14761.077)" fill="url(#a)"/></g></svg>