<svg role="img" viewBox="0 0 24 24" xmlns="http://www.w3.org/2000/svg">
  <title>Purplet</title>
  <path
    d="M8.51877 24.6438V18.6C8.51781 17.9501 8.25853 17.3272 7.79772 16.8678C7.33692 16.4083 6.71228 16.1498 6.0607 16.149H-0.00012207V11.1987C-0.00012207 10.7033 0.197219 10.2281 0.548468 9.87782C0.899718 9.52749 1.3761 9.33067 1.87285 9.33067H7.69138C7.68168 9.17055 7.67714 9.008 7.67714 8.84828V8.78483C7.67714 7.71588 7.88822 6.65734 8.29837 5.66976C8.70851 4.68219 9.30962 3.78487 10.0675 3.02901C10.8253 2.27315 11.7251 1.67362 12.7152 1.26456C13.7054 0.85549 14.7667 0.644958 15.8384 0.644958C16.9102 0.644958 17.9715 0.85549 18.9616 1.26456C19.9518 1.67362 20.8515 2.27315 21.6094 3.02901C22.3672 3.78487 22.9684 4.68219 23.3785 5.66976C23.7887 6.65734 23.9998 7.71588 23.9998 8.78483V8.85819L23.9964 16.9876H15.8382C15.6776 16.9876 15.5145 16.9833 15.3545 16.9743V11.1987C15.3545 10.7034 15.1573 10.2284 14.8061 9.87808C14.455 9.52777 13.9787 9.33081 13.4821 9.33067H7.69138C7.80809 11.3198 8.65297 13.1971 10.0656 14.6061C11.4782 16.0151 13.3602 16.8578 15.3545 16.9743L15.3546 22.7776C15.3546 23.2729 15.1573 23.7479 14.8062 24.0982C14.4551 24.4485 13.9788 24.6455 13.4821 24.6456L8.51877 24.6438ZM-0.00012207 17.9563H4.78263C5.29307 17.9564 5.78262 18.1586 6.14359 18.5186C6.50457 18.8785 6.70744 19.3666 6.7076 19.8757V24.6454L-0.00012207 17.9563Z" />
</svg>