<svg xmlns="http://www.w3.org/2000/svg" width="117.93" height="117.935" viewBox="0 0 117.93 117.935"><g transform="translate(21.518 0.8)"><rect width="117.93" height="117.935" transform="translate(-21.517 -0.8)" fill="rgba(0,0,0,0)"/><path d="M19221.684,14559.146a17.991,17.991,0,0,0,0-35.981,17.99,17.99,0,0,1,17.988-17.988h17.988v17.988a17.992,17.992,0,0,1,17.988-17.988h-35.977a17.988,17.988,0,0,1,0-35.977h35.977a40.22,40.22,0,0,0,17.992,53.965,17.99,17.99,0,1,1-35.98,0v35.981a17.988,17.988,0,0,1-35.977,0Z" transform="translate(-19220.215 -14467)"/><path d="M19239.672,14580.135a125.287,125.287,0,0,0-20.988-56.97,20.979,20.979,0,0,0,0-35.977,21.012,21.012,0,0,1,20.988-20.988h35.977a125.269,125.269,0,0,0,20.992,56.965,20.98,20.98,0,0,1-35.98,14.682v21.3A21.012,21.012,0,0,1,19239.672,14580.135Zm0-41.977v6a14.988,14.988,0,1,0,14.988,14.988v-50.97h-14.988a14.991,14.991,0,0,0,0,29.981Zm20.988-14.993a14.99,14.99,0,1,0,14.988-14.988A15.008,15.008,0,0,0,19260.66,14523.165Zm14.988-20.988a14.988,14.988,0,1,0,0-29.977h-35.977a14.988,14.988,0,0,0,0,29.977Z" transform="translate(-19220.215 -14467)"/><path d="M144,162.722a17.989,17.989,0,0,1,17.989-17.989h0a17.989,17.989,0,0,1,17.989,17.989h0a17.989,17.989,0,0,1-17.989,17.989h0A17.989,17.989,0,0,1,144,162.722Z" transform="translate(-106.556 -106.555)" fill="#1abcfe"/><path d="M1.466,305.256a17.989,17.989,0,0,1,17.989-17.989H37.444v17.989a17.989,17.989,0,0,1-17.989,17.989h0A17.989,17.989,0,0,1,1.466,305.256Z" transform="translate(0 -213.111)" fill="#0acf83"/><path d="M144,2.2V38.178h17.989a17.989,17.989,0,0,0,17.989-17.989h0A17.989,17.989,0,0,0,161.989,2.2Z" transform="translate(-106.556 0)" fill="#ff7262"/><path d="M1.466,20.189A17.989,17.989,0,0,0,19.455,38.178H37.444V2.2H19.455A17.989,17.989,0,0,0,1.466,20.189Z" transform="translate(0)" fill="#f24e1e"/><path d="M1.466,162.722a17.989,17.989,0,0,0,17.989,17.989H37.444V144.733H19.455A17.989,17.989,0,0,0,1.466,162.722Z" transform="translate(0 -106.555)" fill="#a259ff"/></g></svg>