<svg xmlns="http://www.w3.org/2000/svg" width="113.932" height="113.936" viewBox="0 0 113.932 113.936"><g transform="translate(19571.309 14470)"><rect width="113.931" height="113.936" transform="translate(-19571.309 -14470)" fill="rgba(0,0,0,0)"/><path d="M47.228,107.936a30.117,30.117,0,0,0,16.243-4.668L87.913,87.693a28.027,28.027,0,0,0,12.662-18.779,29.539,29.539,0,0,0-2.908-18.958,28.109,28.109,0,0,0,4.189-10.476,29.867,29.867,0,0,0-5.1-22.6C87.012,2.936,67.765-1.2,53.852,7.671L29.411,23.245A28.035,28.035,0,0,0,16.749,42.024a29.526,29.526,0,0,0,2.912,18.958,28.114,28.114,0,0,0-4.2,10.476A29.876,29.876,0,0,0,20.57,94.051a32.655,32.655,0,0,0,26.658,13.885M28.6,70.37l1.255.918a31.525,31.525,0,0,0,9.558,4.775l.909.275-.087.909a5.478,5.478,0,0,0,.988,3.629,5.846,5.846,0,0,0,6.274,2.33,5.383,5.383,0,0,0,1.5-.656L73.44,66.977a5.089,5.089,0,0,0,2.291-3.4,5.43,5.43,0,0,0-.923-4.1,5.85,5.85,0,0,0-6.274-2.33,5.378,5.378,0,0,0-1.5.656L57.709,63.75a17.83,17.83,0,0,1-4.963,2.182,19.413,19.413,0,0,1-20.834-7.722,17.961,17.961,0,0,1-3.069-13.589,16.855,16.855,0,0,1,7.617-11.289L60.9,17.754a17.8,17.8,0,0,1,4.963-2.182A19.413,19.413,0,0,1,86.693,23.3a17.966,17.966,0,0,1,3.074,13.585,17.238,17.238,0,0,1-.586,2.282l-.459,1.4-1.25-.918a31.5,31.5,0,0,0-9.562-4.779L77,34.6l.087-.905a5.487,5.487,0,0,0-.988-3.633,5.846,5.846,0,0,0-6.274-2.326,5.382,5.382,0,0,0-1.5.656L43.883,43.961a5.081,5.081,0,0,0-2.291,3.4,5.422,5.422,0,0,0,.923,4.1,5.85,5.85,0,0,0,6.274,2.33,5.4,5.4,0,0,0,1.5-.66l9.322-5.946a17.782,17.782,0,0,1,4.963-2.177,19.413,19.413,0,0,1,20.834,7.722,17.962,17.962,0,0,1,3.069,13.589,16.864,16.864,0,0,1-7.617,11.294L56.428,93.185a17.8,17.8,0,0,1-4.963,2.182,19.413,19.413,0,0,1-20.834-7.726,17.966,17.966,0,0,1-3.074-13.585,17.041,17.041,0,0,1,.586-2.282l.459-1.4m18.626,40.565v0a35.75,35.75,0,0,1-23.239-8.657,35.3,35.3,0,0,1-5.87-6.5,32.876,32.876,0,0,1-5.61-24.847l0-.01a30.918,30.918,0,0,1,3.725-10.111A32.53,32.53,0,0,1,13.8,41.492,31.035,31.035,0,0,1,27.806,20.71L52.24,5.141A33.146,33.146,0,0,1,70.1,0,35.744,35.744,0,0,1,93.336,8.657a35.269,35.269,0,0,1,5.867,6.5,32.867,32.867,0,0,1,5.606,24.853v.006a30.915,30.915,0,0,1-3.718,10.113,32.542,32.542,0,0,1,2.436,19.322,31.026,31.026,0,0,1-14.008,20.78L65.084,105.8A33.149,33.149,0,0,1,47.228,110.936ZM30.405,75.273A15.062,15.062,0,0,0,33.072,85.9l.025.035A16.405,16.405,0,0,0,50.7,92.465a14.786,14.786,0,0,0,4.115-1.811l24.45-15.583a13.894,13.894,0,0,0,6.262-9.285,15.046,15.046,0,0,0-2.557-11.315l-.024-.034a16.405,16.405,0,0,0-17.605-6.531,14.764,14.764,0,0,0-4.117,1.808l-9.318,5.944a8.4,8.4,0,0,1-2.343,1.029l-.022.006a8.848,8.848,0,0,1-9.48-3.508,8.472,8.472,0,0,1-1.423-6.349,8.1,8.1,0,0,1,3.638-5.41L66.719,25.853a8.372,8.372,0,0,1,2.336-1.021l.015,0a8.843,8.843,0,0,1,9.487,3.509,8.5,8.5,0,0,1,1.511,4.08,34.357,34.357,0,0,1,6.852,3.245,15.063,15.063,0,0,0-2.667-10.62l-.025-.035a16.405,16.405,0,0,0-17.6-6.534,14.787,14.787,0,0,0-4.115,1.811L38.056,35.872a13.885,13.885,0,0,0-6.261,9.28,15.046,15.046,0,0,0,2.558,11.315l.024.034a16.405,16.405,0,0,0,17.6,6.531A14.813,14.813,0,0,0,56.1,61.22l9.331-5.949a8.368,8.368,0,0,1,2.336-1.022l.018,0a8.848,8.848,0,0,1,9.481,3.511A8.482,8.482,0,0,1,78.685,64.1v.007a8.108,8.108,0,0,1-3.637,5.4L50.605,85.085a8.373,8.373,0,0,1-2.335,1.021l-.017,0A8.843,8.843,0,0,1,38.768,82.6a8.491,8.491,0,0,1-1.512-4.081A34.386,34.386,0,0,1,30.405,75.273Z" transform="translate(-19573.004 -14470)"/><path d="M38.477,92.367a19.413,19.413,0,0,1-20.834-7.726,17.966,17.966,0,0,1-3.074-13.585,17.044,17.044,0,0,1,.586-2.282l.459-1.4,1.255.918a31.525,31.525,0,0,0,9.558,4.775l.909.275-.087.909a5.478,5.478,0,0,0,.988,3.629,5.846,5.846,0,0,0,6.274,2.33,5.383,5.383,0,0,0,1.5-.656L60.452,63.977a5.089,5.089,0,0,0,2.291-3.4,5.43,5.43,0,0,0-.923-4.1,5.85,5.85,0,0,0-6.274-2.33,5.378,5.378,0,0,0-1.5.656L44.72,60.75a17.83,17.83,0,0,1-4.963,2.182,19.413,19.413,0,0,1-20.834-7.722,17.961,17.961,0,0,1-3.069-13.589,16.855,16.855,0,0,1,7.617-11.289L47.908,14.754a17.8,17.8,0,0,1,4.963-2.182A19.413,19.413,0,0,1,73.7,20.3a17.966,17.966,0,0,1,3.074,13.585,17.239,17.239,0,0,1-.586,2.282l-.459,1.4-1.25-.918a31.5,31.5,0,0,0-9.562-4.779l-.909-.275.087-.905a5.487,5.487,0,0,0-.988-3.633,5.846,5.846,0,0,0-6.274-2.326,5.382,5.382,0,0,0-1.5.656L30.9,40.961a5.081,5.081,0,0,0-2.291,3.4,5.422,5.422,0,0,0,.923,4.1A5.85,5.85,0,0,0,35.8,50.79a5.4,5.4,0,0,0,1.5-.66l9.322-5.946a17.782,17.782,0,0,1,4.963-2.177,19.413,19.413,0,0,1,20.834,7.722,17.962,17.962,0,0,1,3.069,13.589,16.864,16.864,0,0,1-7.617,11.294L43.439,90.185a17.8,17.8,0,0,1-4.963,2.182M83.765,13.883C74.024-.064,54.777-4.2,40.864,4.671L16.423,20.245A28.035,28.035,0,0,0,3.761,39.024,29.526,29.526,0,0,0,6.672,57.983a28.114,28.114,0,0,0-4.2,10.476A29.876,29.876,0,0,0,7.582,91.051c9.746,13.948,28.988,18.08,42.9,9.217L74.924,84.693A28.027,28.027,0,0,0,87.587,65.914a29.539,29.539,0,0,0-2.908-18.958A28.11,28.11,0,0,0,88.868,36.48a29.867,29.867,0,0,0-5.1-22.6Z" transform="translate(-19560.016 -14467)" fill="#ff3e00"/><path d="M15.614,67.37l1.255.918a31.525,31.525,0,0,0,9.558,4.775l.909.275-.087.909a5.478,5.478,0,0,0,.988,3.629,5.846,5.846,0,0,0,6.274,2.33,5.383,5.383,0,0,0,1.5-.656L60.452,63.977a5.089,5.089,0,0,0,2.291-3.4,5.43,5.43,0,0,0-.923-4.1,5.85,5.85,0,0,0-6.274-2.33,5.377,5.377,0,0,0-1.5.656L44.72,60.75a17.829,17.829,0,0,1-4.963,2.182,19.413,19.413,0,0,1-20.834-7.722,17.962,17.962,0,0,1-3.069-13.589,16.855,16.855,0,0,1,7.617-11.289L47.908,14.754a17.8,17.8,0,0,1,4.963-2.182A19.413,19.413,0,0,1,73.7,20.3a17.966,17.966,0,0,1,3.074,13.585,17.242,17.242,0,0,1-.586,2.282l-.459,1.4-1.25-.918a31.5,31.5,0,0,0-9.562-4.779l-.909-.275.087-.905a5.487,5.487,0,0,0-.988-3.633,5.846,5.846,0,0,0-6.274-2.326,5.383,5.383,0,0,0-1.5.656L30.9,40.961a5.081,5.081,0,0,0-2.291,3.4,5.422,5.422,0,0,0,.923,4.1A5.85,5.85,0,0,0,35.8,50.79a5.4,5.4,0,0,0,1.5-.66l9.322-5.946a17.783,17.783,0,0,1,4.963-2.177,19.413,19.413,0,0,1,20.834,7.722,17.962,17.962,0,0,1,3.069,13.589,16.864,16.864,0,0,1-7.617,11.294L43.439,90.185a17.8,17.8,0,0,1-4.963,2.182,19.413,19.413,0,0,1-20.834-7.726,17.966,17.966,0,0,1-3.074-13.585,17.043,17.043,0,0,1,.586-2.282l.459-1.4" transform="translate(-19560.016 -14467)" fill="#fff"/></g></svg>