<svg xmlns="http://www.w3.org/2000/svg" width="105.102" height="105.103" viewBox="0 0 105.102 105.103"><g transform="translate(19341 14467)"><path d="M7.645,3A4.637,4.637,0,0,0,3,7.645V97.457A4.637,4.637,0,0,0,7.645,102.1H97.457a4.637,4.637,0,0,0,4.645-4.645V7.645A4.637,4.637,0,0,0,97.457,3H7.645m71.7,40.26h0a43.848,43.848,0,0,1,6.718.458,26.345,26.345,0,0,1,5.393,1.4v10.15A16.311,16.311,0,0,0,88.8,53.782a21.031,21.031,0,0,0-2.961-1.074,22.517,22.517,0,0,0-5.888-.826,14.762,14.762,0,0,0-3.382.355,8.671,8.671,0,0,0-2.573,1,4.951,4.951,0,0,0-1.623,1.544,3.667,3.667,0,0,0-.578,2.023,3.887,3.887,0,0,0,.644,2.184,7.459,7.459,0,0,0,1.829,1.833,19.158,19.158,0,0,0,2.874,1.693q1.691.836,3.824,1.718a42.822,42.822,0,0,1,5.228,2.593,18.6,18.6,0,0,1,3.976,3.109A12.038,12.038,0,0,1,92.7,73.887,15.794,15.794,0,0,1,92.048,85.9a12.524,12.524,0,0,1-4.179,4.48,18.086,18.086,0,0,1-6.14,2.461,35.578,35.578,0,0,1-7.391.743,40.948,40.948,0,0,1-7.6-.677A22.892,22.892,0,0,1,60.5,90.871V80.011a20.783,20.783,0,0,0,13.366,4.955,15.446,15.446,0,0,0,3.6-.372,8.49,8.49,0,0,0,2.573-1.032,4.6,4.6,0,0,0,1.54-1.569,4.224,4.224,0,0,0-.306-4.5,8.754,8.754,0,0,0-2.217-2.065A23.11,23.11,0,0,0,75.72,73.6q-2.061-.941-4.158-1.8A21.24,21.24,0,0,1,63.085,66a12.706,12.706,0,0,1-2.791-8.279,13.207,13.207,0,0,1,1.524-6.532,12.946,12.946,0,0,1,4.146-4.5,18.557,18.557,0,0,1,6.07-2.6,31.124,31.124,0,0,1,7.309-.83m-22.917,9.72H42.253V92.811H31.034V52.981h-14.1V44.037H56.424v8.944M7.645,0H97.457A7.637,7.637,0,0,1,105.1,7.645V97.457a7.637,7.637,0,0,1-7.645,7.645H7.645A7.637,7.637,0,0,1,0,97.457V7.645A7.637,7.637,0,0,1,7.645,0ZM88.453,47.293a23.374,23.374,0,0,0-2.837-.608l-.019,0a41.1,41.1,0,0,0-6.255-.422h-.016a28.15,28.15,0,0,0-6.6.75l-.018,0a15.5,15.5,0,0,0-5.078,2.17,9.9,9.9,0,0,0-3.189,3.461,10.335,10.335,0,0,0-1.144,5.071A9.7,9.7,0,0,0,65.412,64.1a18.435,18.435,0,0,0,7.3,4.923c1.422.582,2.851,1.2,4.249,1.84A26.191,26.191,0,0,1,80.7,72.924a11.72,11.72,0,0,1,2.964,2.764l.03.04a7.224,7.224,0,0,1,.523,7.69l-.032.058a7.6,7.6,0,0,1-2.512,2.6l-.028.018a11.5,11.5,0,0,1-3.477,1.416,18.475,18.475,0,0,1-4.3.455h-.015A23.81,23.81,0,0,1,63.5,85.536v3.378a19.882,19.882,0,0,0,3.755,1.036l.032.006a38.031,38.031,0,0,0,7.041.628h.013a32.732,32.732,0,0,0,6.769-.678l.034-.007a15.029,15.029,0,0,0,5.111-2.046,9.555,9.555,0,0,0,3.168-3.4l.006-.01a12.864,12.864,0,0,0,.489-9.451,8.989,8.989,0,0,0-1.909-2.977l0,0a15.7,15.7,0,0,0-3.337-2.6A39.993,39.993,0,0,0,79.812,67c-1.463-.6-2.809-1.209-4-1.8a21.927,21.927,0,0,1-3.321-1.964,10.458,10.458,0,0,1-2.552-2.589l-.007-.011a6.844,6.844,0,0,1-1.141-3.819,6.648,6.648,0,0,1,1.051-3.659,7.952,7.952,0,0,1,2.584-2.486l.048-.029a11.65,11.65,0,0,1,3.431-1.338,17.861,17.861,0,0,1,4.041-.428h.021a25.524,25.524,0,0,1,6.673.936c.61.171,1.215.366,1.811.585Zm-35.029-.257H19.936v2.944h14.1V89.811h5.219V49.981H53.424Z" transform="translate(-19341 -14467)"/><path d="M4.645,0A4.637,4.637,0,0,0,0,4.645V94.457A4.637,4.637,0,0,0,4.645,99.1H94.457A4.637,4.637,0,0,0,99.1,94.457V4.645A4.637,4.637,0,0,0,94.457,0Zm71.7,40.26a43.848,43.848,0,0,1,6.718.458,26.345,26.345,0,0,1,5.393,1.4v10.15A16.31,16.31,0,0,0,85.8,50.782a21.03,21.03,0,0,0-2.961-1.074,22.517,22.517,0,0,0-5.888-.826,14.762,14.762,0,0,0-3.382.355,8.671,8.671,0,0,0-2.573,1,4.951,4.951,0,0,0-1.623,1.544,3.667,3.667,0,0,0-.578,2.023,3.887,3.887,0,0,0,.644,2.184,7.459,7.459,0,0,0,1.829,1.833,19.156,19.156,0,0,0,2.874,1.693q1.691.836,3.824,1.718a42.824,42.824,0,0,1,5.228,2.593,18.6,18.6,0,0,1,3.976,3.109A12.038,12.038,0,0,1,89.7,70.887,15.794,15.794,0,0,1,89.048,82.9a12.524,12.524,0,0,1-4.179,4.48,18.086,18.086,0,0,1-6.14,2.461,35.578,35.578,0,0,1-7.391.743,40.946,40.946,0,0,1-7.6-.677A22.892,22.892,0,0,1,57.5,87.871V77.011a20.783,20.783,0,0,0,13.366,4.955,15.446,15.446,0,0,0,3.6-.372,8.49,8.49,0,0,0,2.573-1.032,4.6,4.6,0,0,0,1.54-1.569,4.224,4.224,0,0,0-.306-4.5,8.754,8.754,0,0,0-2.217-2.065A23.11,23.11,0,0,0,72.72,70.6q-2.061-.941-4.158-1.8A21.24,21.24,0,0,1,60.085,63a12.706,12.706,0,0,1-2.791-8.279,13.207,13.207,0,0,1,1.524-6.532,12.946,12.946,0,0,1,4.146-4.5,18.557,18.557,0,0,1,6.07-2.6,31.118,31.118,0,0,1,7.309-.83Zm-62.406.776H53.424v8.944H39.253V89.811H28.034V49.981h-14.1Z" transform="translate(-19338 -14464)" fill="#3178c6"/><path d="M58.317,90.241a22.883,22.883,0,0,0,6.243,2.036,40.966,40.966,0,0,0,7.6.677,35.579,35.579,0,0,0,7.391-.744,18.082,18.082,0,0,0,6.14-2.461,12.531,12.531,0,0,0,4.179-4.48,15.794,15.794,0,0,0,.656-12.013A12.045,12.045,0,0,0,87.989,69.3,18.62,18.62,0,0,0,84.013,66.2,42.747,42.747,0,0,0,78.785,63.6q-2.13-.88-3.823-1.718a19.148,19.148,0,0,1-2.875-1.693,7.479,7.479,0,0,1-1.829-1.833,3.888,3.888,0,0,1-.644-2.184,3.667,3.667,0,0,1,.579-2.023,4.936,4.936,0,0,1,1.623-1.544,8.668,8.668,0,0,1,2.572-1,14.8,14.8,0,0,1,3.382-.354,22.5,22.5,0,0,1,5.889.825,21.153,21.153,0,0,1,2.96,1.074,16.279,16.279,0,0,1,2.655,1.491V44.493a26.323,26.323,0,0,0-5.393-1.4,43.8,43.8,0,0,0-6.718-.458,31.116,31.116,0,0,0-7.309.83,18.564,18.564,0,0,0-6.07,2.6,12.945,12.945,0,0,0-4.146,4.5,13.2,13.2,0,0,0-1.523,6.532,12.7,12.7,0,0,0,2.791,8.28,21.24,21.24,0,0,0,8.477,5.8q2.1.859,4.158,1.8A23.128,23.128,0,0,1,76.873,74.8a8.764,8.764,0,0,1,2.218,2.065,4.225,4.225,0,0,1,.305,4.5,4.6,4.6,0,0,1-1.54,1.569,8.5,8.5,0,0,1-2.572,1.033,15.474,15.474,0,0,1-3.6.371A20.781,20.781,0,0,1,58.317,79.38Zm-43.56-37.89h14.1v39.83H40.073V52.351H54.244V43.406H14.756Z" transform="translate(-19338.82 -14466.37)" fill="#fff"/></g></svg>