<svg xmlns="http://www.w3.org/2000/svg" width="113.627" height="110.936" viewBox="0 0 113.627 110.936"><g transform="translate(19464 14470)"><path d="M26.162,3A23.162,23.162,0,0,0,3,26.162V84.774a23.162,23.162,0,0,0,23.162,23.162h61.3a23.162,23.162,0,0,0,23.162-23.162V26.162A23.162,23.162,0,0,0,87.464,3h-61.3m0-3h61.3a26.143,26.143,0,0,1,26.162,26.162V84.774a26.143,26.143,0,0,1-26.162,26.162h-61.3A26.143,26.143,0,0,1,0,84.774V26.162A26.143,26.143,0,0,1,26.162,0Z" transform="translate(-19464 -14470)"/><path d="M84.464.3h-61.3A23.162,23.162,0,0,0,0,23.462V82.073a23.162,23.162,0,0,0,23.162,23.162h61.3a23.162,23.162,0,0,0,23.162-23.162V23.462A23.162,23.162,0,0,0,84.464.3Z" transform="translate(-19461 -14467.3)" fill="#470137"/><path d="M76.969,74.888a22.292,22.292,0,0,1-9.308-2.02,15.278,15.278,0,0,1-6.754-6.1A19.5,19.5,0,0,1,58.45,56.549a18.88,18.88,0,0,1,2.458-9.458,18,18,0,0,1,7.152-6.928,23.139,23.139,0,0,1,10.673-2.621c.532,0,1.071.019,1.6.056.385.022.847.059,1.373.108V23.481c0-.336.146-.507.435-.507h9.094a.39.39,0,0,1,.054,0,.386.386,0,0,1,.38.331.435.435,0,0,1,0,.108V66.087c0,.814.036,1.713.108,2.673.061.818.131,1.766.179,2.6a.734.734,0,0,1-.43.713,36.08,36.08,0,0,1-7.292,2.166,38.772,38.772,0,0,1-6.937.65Zm1.266-8.6h.1c.6,0,1.195-.024,1.782-.071A7.339,7.339,0,0,0,81.7,65.93V46.221a7.655,7.655,0,0,0-1.193-.215c-.449-.045-.921-.071-1.484-.081h-.113a11.205,11.205,0,0,0-4.94,1.158A9.294,9.294,0,0,0,68.7,56.11a12.631,12.631,0,0,0,.758,4.623,8.8,8.8,0,0,0,2.022,3.175,7.737,7.737,0,0,0,3.031,1.8,11.889,11.889,0,0,0,3.663.578ZM15.8,74.008c-.065,0-.105-.022-.118-.132a.748.748,0,0,1,.108-.507L29.718,50.476,16.144,27.526c-.148-.192-.172-.349-.072-.48a.515.515,0,0,1,.391-.181l.044,0h10.18l.071,0a1.608,1.608,0,0,1,.58.109,1.322,1.322,0,0,1,.43.4c.854,1.9,1.826,3.845,2.888,5.775,1.038,1.887,2.118,3.806,3.21,5.7,1.082,1.881,2.09,3.8,3,5.7h.071c.967-2,1.952-3.94,2.924-5.775,1.025-1.935,2.045-3.843,3.031-5.669.966-1.777,1.946-3.631,3-5.668a1.1,1.1,0,0,1,.287-.475,1.076,1.076,0,0,1,.477-.112c.034,0,.068,0,.1,0h9.457a.421.421,0,0,1,.1-.012.415.415,0,0,1,.4.312.42.42,0,0,1-.139.422l0,.018L43.145,49.768,57.513,73.307a.738.738,0,0,1,.072.543c-.022.078-.071.093-.154.093l-.069,0h-.008l-.091,0a1.011,1.011,0,0,0-.18.015H46.826c-.732,0-1.233-.035-1.516-.507-.861-1.679-1.806-3.51-2.888-5.6-.991-1.9-2.023-3.812-3.067-5.668-1.1-1.945-2.179-3.914-3.215-5.852h-.072c-.971,1.936-1.979,3.879-3,5.776-1,1.872-2.042,3.807-3.067,5.739-.993,1.876-2.036,3.783-3.1,5.669-.2.445-.549.48-1.018.48H16a1.141,1.141,0,0,0-.127.009A.755.755,0,0,1,15.8,74.008Z" transform="translate(-19461 -14467)" fill="#ff61f6"/></g></svg>