<svg xmlns="http://www.w3.org/2000/svg" width="35" height="35" viewBox="0 0 35 35">
  <g id="favicon" transform="translate(22320 23810.437)">
    <rect id="bg" width="35" height="35" transform="translate(-22320 -23810.436)" fill="none"/>
    <path id="icon" d="M5.126,29.875A17.5,17.5,0,0,1,29.875,5.126a17.635,17.635,0,0,1,2.834,3.7L27.058,12.1A11.01,11.01,0,0,1,27,23l5.65,3.274a17.641,17.641,0,0,1-2.777,3.6,17.5,17.5,0,0,1-24.749,0ZM6.472,17.5A11,11,0,0,0,27,23l-9.367-5.43,9.423-5.46A11,11,0,0,0,6.472,17.5Z" transform="translate(-22320 -23810.438)" fill="#5767fc"/>
  </g>
</svg>
